<?xml version="1.0" encoding="UTF-8"?>
<svg id="Layer_1" data-name="Layer 1" xmlns="http://www.w3.org/2000/svg" viewBox="0 0 204 262.17">
  <defs>
    <style>
      .cls-1, .cls-2 {
        stroke-width: 3px;
      }

      .cls-1, .cls-2, .cls-3, .cls-4 {
        stroke: #000;
        stroke-miterlimit: 10;
      }

      .cls-1, .cls-4 {
        fill: none;
      }

      .cls-4 {
        stroke-width: 4px;
      }
    </style>
  </defs>
  <path class="cls-4" d="m21.71,84.11v-7.71C21.71,35.31,62.07,2,111.86,2s90.14,33.31,90.14,74.4c0,2.53-.16,5.03-.46,7.49v67.2c.3,1.88.46,3.79.46,5.75v58.7c0,20.31-16.62,36.92-36.93,36.92H58.64c-20.31,0-36.93-16.61-36.93-36.92v-50.66"/>
  <line class="cls-4" x1="21.71" y1="117.27" x2="21.71" y2="104.01"/>
  <polyline class="cls-1" points="30.26 114.95 13.63 93.92 22.64 86.42 42.15 108.91"/>
  <rect class="cls-2" x="10.1" y="87.6" width="14.22" height="2.91" transform="translate(-53.03 31.66) rotate(-39.81)"/>
  <path class="cls-1" d="m12.26,90.48c-3.25-1.74-6.5-3.49-9.75-5.23-.13-4.84-.25-9.67-.38-14.51,4.67,1.06,9.33,2.13,14,3.19,1.18,3.43,2.36,6.87,3.54,10.3-2.47,2.08-4.94,4.17-7.41,6.25Z"/>
  <circle class="cls-1" cx="10.49" cy="80.87" r="2.92"/>
  <line class="cls-1" x1="2.73" y1="71.56" x2="9.01" y2="79.1"/>
  <path class="cls-4" d="m43.57,169.8c-1.92.47-3.91.72-5.94.72-14.75,0-28.28-15.1-28.28-31.31s10.54-24.62,25.29-24.62c2.52,0,5.04.3,7.5.89"/>
  <path class="cls-4" d="m65.69,99.79h21.54l7.44-19.29,3.39-8.79,2.18,8.79,4.79,19.29h79.62v27.94h0c3.78,4.87,4.77,11.31,3.15,19.79-3.53,18.5-29.9,34.09-66.77,34.09-18.71,0-34.46-3.43-46.24-9.13-2.48-1.2-4.79-2.5-6.91-3.9"/>
  <path class="cls-4" d="m64.94,84.65c4.94,53.56,2.79,90.56,0,126.06-8.81-4.52-16.49-11.05-21.88-21.6,2.16-27.6.63-59.1-2.11-91.89"/>
  <path class="cls-4" d="m8.91,141.26c-5.12.32-6.91,3.16-6.91,5.71,0,1.4,2.91,7.43,14.4-1.66"/>
  <path class="cls-4" d="m10.59,129.54c-4.11-1.14-7.66,1.6-7.66,4.4,0,1.4,2.93,8.74,14.42-.35"/>
  <circle class="cls-3" cx="179.12" cy="127.23" r="1.16"/>
  <path class="cls-4" d="m89.25,121.54c0-5.2,5.62-9.41,12.55-9.41s12.55,4.22,12.55,9.41"/>
  <path class="cls-4" d="m149.02,121.97c0-5.2,5.62-9.41,12.55-9.41s12.55,4.22,12.55,9.41"/>
</svg>